<?xml version="1.0" encoding="UTF-8" standalone="no"?>
<!DOCTYPE svg PUBLIC "-//W3C//DTD SVG 1.1//EN" "http://www.w3.org/Graphics/SVG/1.1/DTD/svg11.dtd">
<svg width="100%" height="100%" viewBox="0 0 126 127" version="1.1" xmlns="http://www.w3.org/2000/svg" xmlns:xlink="http://www.w3.org/1999/xlink" xml:space="preserve" xmlns:serif="http://www.serif.com/" style="fill-rule:evenodd;clip-rule:evenodd;stroke-linejoin:round;stroke-miterlimit:2;">
    <g transform="matrix(1,0,0,1,0,-164)">
        <g id="Mesa-de-trabajo1" serif:id="Mesa de trabajo1" transform="matrix(0.234637,0,0,0.259965,-465.754,192.752)">
            <rect x="1985" y="-109" width="537" height="484.681" style="fill:rgb(134,100,100);fill-opacity:0;"/>
            <g transform="matrix(1.0339,0,0,1.0339,-76.3898,0.963798)">
                <g>
                    <g transform="matrix(3.8685,0,0,3.4916,1827.97,86.1373)">
                        <circle cx="110" cy="12" r="65"/>
                    </g>
                    <g transform="matrix(4.12217,0,0,3.72055,1993.8,-718.077)">
                        <path d="M84.252,248.107C81.513,250.083 78.677,251.474 75.74,252.272C75.74,252.272 75.74,252.272 75.74,252.272C72.851,253.058 69.987,253.225 67.148,252.766C67.148,252.766 67.148,252.766 67.148,252.766C64.324,252.31 61.639,251.149 59.086,249.296C59.086,249.296 59.086,249.296 59.086,249.296C56.458,247.39 54.151,245.056 52.162,242.297C52.162,242.297 52.161,242.297 52.161,242.297C50.103,239.444 48.606,236.318 47.671,232.919C47.671,232.919 47.671,232.919 47.671,232.919C46.75,229.575 46.559,226.346 47.109,223.23C47.658,220.128 48.84,217.31 50.656,214.777C50.656,214.777 50.656,214.777 50.656,214.777C52.51,212.191 54.765,209.941 57.416,208.029C57.416,208.029 57.416,208.029 57.416,208.029C58.956,206.918 60.644,205.891 62.479,204.947C64.322,203.999 66.667,203.075 69.51,202.168C70.007,202.009 70.385,201.603 70.51,201.097C70.635,200.59 70.487,200.055 70.12,199.684C69.309,198.863 68.577,198.045 67.928,197.23C67.504,196.697 66.773,196.518 66.149,196.793C64.473,197.533 63.152,198.151 62.187,198.646C61.218,199.144 60.013,199.828 58.572,200.698C58.571,200.698 58.571,200.698 58.571,200.699C57.128,201.571 55.82,202.43 54.646,203.277C51.121,205.819 48.182,208.736 45.825,212.023C45.825,212.023 45.825,212.023 45.825,212.023C43.423,215.373 41.89,218.97 41.217,222.811C41.217,222.811 41.217,222.812 41.217,222.812C40.545,226.652 40.815,230.668 42.045,234.856C43.254,238.972 45.122,242.782 47.651,246.288C49.93,249.449 52.601,252.104 55.663,254.254C58.782,256.446 62.191,257.824 65.888,258.392C69.567,258.958 73.295,258.702 77.07,257.615C77.07,257.615 77.071,257.615 77.071,257.615C80.792,256.542 84.301,254.821 87.596,252.444C89.168,251.311 90.865,249.919 92.688,248.269C92.688,248.269 92.688,248.269 92.689,248.268C94.507,246.62 96.348,244.706 98.204,242.526C98.614,242.045 98.678,241.359 98.365,240.81C97.775,239.777 97.303,238.844 96.95,238.011C96.74,237.515 96.281,237.17 95.746,237.106C95.212,237.043 94.684,237.27 94.363,237.703C91.074,242.143 87.707,245.615 84.252,248.107L84.252,248.107Z" style="fill:white;"/>
                    </g>
                    <g transform="matrix(4.12217,0,0,3.72055,1993.8,-718.077)">
                        <path d="M52.504,265.789C47.184,264.139 42.54,261.78 38.577,258.703C38.577,258.703 38.577,258.703 38.577,258.702C34.638,255.646 31.55,252.002 29.318,247.768C29.318,247.768 29.318,247.768 29.318,247.768C27.09,243.543 25.933,238.795 25.84,233.529C25.747,228.202 26.527,222.872 28.18,217.54C28.18,217.54 28.18,217.54 28.18,217.54C29.892,212.016 32.516,206.959 36.055,202.371C36.055,202.371 36.055,202.37 36.055,202.37C39.569,197.811 43.663,194.338 48.345,191.959C48.345,191.959 48.345,191.959 48.345,191.959C53.017,189.582 57.946,188.334 63.13,188.213C68.358,188.092 73.54,188.827 78.673,190.418C78.673,190.418 78.673,190.418 78.673,190.418C81.632,191.335 84.627,192.527 87.658,193.992C90.694,195.46 94.192,197.599 98.153,200.407C98.436,200.608 98.804,200.647 99.124,200.51C99.444,200.373 99.67,200.08 99.72,199.736C99.996,197.859 100.347,196.094 100.774,194.436C100.887,193.996 100.69,193.536 100.293,193.314C97.771,191.905 95.739,190.827 94.199,190.08C94.199,190.08 94.199,190.08 94.199,190.08C92.655,189.332 90.655,188.465 88.197,187.478C88.197,187.478 88.197,187.478 88.197,187.477C85.737,186.491 83.42,185.66 81.247,184.987C81.247,184.987 81.247,184.987 81.247,184.987C74.77,182.978 68.376,182.05 62.068,182.197C55.708,182.345 49.848,183.79 44.487,186.528C44.487,186.528 44.486,186.528 44.486,186.528C39.126,189.265 34.429,193.332 30.406,198.739C26.412,204.106 23.418,210.008 21.422,216.446C21.422,216.446 21.422,216.446 21.422,216.446C19.627,222.235 18.826,228.038 19.019,233.852C19.211,239.716 20.67,245.182 23.394,250.254C26.111,255.313 29.89,259.669 34.735,263.313C39.548,266.935 44.972,269.683 51.009,271.554C53.92,272.456 57.275,273.272 61.072,274C61.072,274 61.072,274 61.072,274C64.867,274.727 69.015,275.228 73.513,275.499C73.934,275.524 74.325,275.283 74.492,274.896C75.268,273.094 76.029,271.548 76.777,270.258C76.957,269.948 76.957,269.564 76.777,269.254C76.596,268.944 76.263,268.754 75.905,268.756C66.919,268.824 59.119,267.839 52.504,265.789L52.504,265.789Z" style="fill:white;"/>
                    </g>
                </g>
            </g>
        </g>
    </g>
</svg>
